<svg xmlns="http://www.w3.org/2000/svg" version="1.1" xmlns:xlink="http://www.w3.org/1999/xlink" xmlns:svgjs="http://svgjs.dev/svgjs" width="2000" height="631" viewBox="0 0 2000 631"><g transform="matrix(1,0,0,1,-1.2121212121212466,1.963516791301629)"><svg viewBox="0 0 396 125" data-background-color="#ffffff" preserveAspectRatio="xMidYMid meet" height="631" width="2000" xmlns="http://www.w3.org/2000/svg" xmlns:xlink="http://www.w3.org/1999/xlink"><g id="tight-bounds" transform="matrix(1,0,0,1,0.2400000000000091,0.018258797913887292)"><svg viewBox="0 0 395.52 124.96348240417223" height="124.96348240417223" width="395.52"><g><svg viewBox="0 0 395.52 124.96348240417223" height="124.96348240417223" width="395.52"><g transform="matrix(1,0,0,1,0,77.2324454120558)"><svg viewBox="0 0 395.52 47.73103699211644" height="47.73103699211644" width="395.52"><g id="textblocktransform"><svg viewBox="0 0 395.52 47.73103699211644" height="47.73103699211644" width="395.52" id="textblock"><g><svg viewBox="0 0 395.52 47.73103699211644" height="47.73103699211644" width="395.52"><g transform="matrix(1,0,0,1,0,0)"><svg width="395.52" viewBox="1 -38.11 322.05 38.870000000000005" height="47.73103699211644" data-palette-color="#ffffff"><path d="M20.56-24.44L20.56-26.59Q20.43-27.44 19.96-28.2 19.48-28.96 18.74-29.5 17.99-30.05 17.05-30.37 16.11-30.69 15.09-30.69L15.09-30.69Q14.16-30.69 13.35-30.49 12.55-30.3 11.95-29.9 11.35-29.49 11-28.86 10.64-28.22 10.64-27.34L10.64-27.34Q10.64-26.25 11.12-25.6 11.6-24.95 12.34-24.54 13.09-24.12 13.99-23.88 14.89-23.63 15.75-23.34L15.75-23.34 22.46-21.09Q23.85-20.61 25.07-19.75 26.29-18.9 27.19-17.68 28.08-16.46 28.59-14.87 29.1-13.28 29.1-11.3L29.1-11.3Q29.1-8.62 28.11-6.4 27.12-4.17 25.34-2.59 23.56-1 21.07-0.12 18.58 0.76 15.55 0.76L15.55 0.76Q13.43 0.76 11.54 0.28 9.64-0.2 8.08-1.1 6.52-2 5.35-3.26 4.17-4.52 3.52-6.1L3.52-6.1 1-6.1 1-13.45 9.84-13.45 9.84-11.94Q9.84-10.84 10.19-9.91 10.55-8.98 11.25-8.3 11.96-7.62 13.04-7.24 14.11-6.86 15.55-6.86L15.55-6.86Q17.75-6.86 18.9-7.87 20.04-8.89 20.04-10.69L20.04-10.69Q20.04-11.62 19.64-12.24 19.24-12.87 18.6-13.29 17.97-13.72 17.19-14.01 16.41-14.31 15.65-14.55L15.65-14.55 10.06-16.36Q8.47-16.85 6.99-17.72 5.52-18.6 4.38-19.92 3.25-21.24 2.58-23.01 1.9-24.78 1.9-27.05L1.9-27.05Q1.9-29.69 2.88-31.75 3.86-33.81 5.62-35.23 7.37-36.65 9.79-37.38 12.21-38.11 15.09-38.11L15.09-38.11Q17.36-38.11 19.29-37.59 21.22-37.06 22.74-36.18 24.27-35.3 25.33-34.17 26.39-33.03 26.95-31.81L26.95-31.81 29.39-31.81 29.39-24.44 20.56-24.44ZM57.93-30.3L57.93-37.01 73.8-37.01 73.8-30.3 69.89-30.3 69.89-6.69 73.8-6.69 73.8 0 57.93 0 57.93-6.69 61.79-6.69 61.79-16.16 45.09-16.16 45.09-6.69 49-6.69 49 0 33.15 0 33.15-6.69 36.98-6.69 36.98-30.3 33.15-30.3 33.15-37.01 49-37.01 49-30.3 45.09-30.3 45.09-22.61 61.79-22.61 61.79-30.3 57.93-30.3ZM96.04 0.66L96.04 0.66Q93.53 0.66 91.23-0.02 88.94-0.71 86.95-1.95 84.96-3.2 83.33-4.94 81.71-6.69 80.56-8.83 79.41-10.96 78.78-13.4 78.14-15.84 78.14-18.51L78.14-18.51Q78.14-21.17 78.78-23.62 79.41-26.07 80.56-28.21 81.71-30.35 83.33-32.09 84.96-33.84 86.95-35.08 88.94-36.33 91.23-37.01 93.53-37.7 96.04-37.7L96.04-37.7Q98.55-37.7 100.86-37.01 103.17-36.33 105.16-35.08 107.15-33.84 108.77-32.09 110.4-30.35 111.56-28.21 112.71-26.07 113.35-23.62 113.98-21.17 113.98-18.51L113.98-18.51Q113.98-15.87 113.35-13.42 112.71-10.96 111.56-8.83 110.4-6.69 108.77-4.94 107.15-3.2 105.16-1.95 103.17-0.71 100.86-0.02 98.55 0.66 96.04 0.66ZM96.04-7.01L96.04-7.01Q98.16-7.01 99.93-7.92 101.7-8.84 102.97-10.41 104.24-11.99 104.94-14.07 105.63-16.16 105.63-18.51L105.63-18.51Q105.63-20.87 104.93-22.97 104.22-25.07 102.94-26.65 101.66-28.22 99.9-29.14 98.14-30.05 96.04-30.05L96.04-30.05Q93.94-30.05 92.18-29.14 90.42-28.22 89.16-26.65 87.89-25.07 87.17-22.97 86.45-20.87 86.45-18.51L86.45-18.51Q86.45-16.16 87.17-14.07 87.89-11.99 89.16-10.41 90.42-8.84 92.18-7.92 93.94-7.01 96.04-7.01ZM118.84-30.3L118.84-37.01 135.93-37.01Q138.79-37.01 141.18-36.12 143.57-35.23 145.31-33.72 147.04-32.2 148.01-30.22 148.99-28.25 148.99-26.1L148.99-26.1Q148.99-23.51 148.22-21.25 147.45-18.99 145.84-17.33 144.23-15.67 141.76-14.71 139.3-13.75 135.93-13.75L135.93-13.75 130.78-13.75 130.78-6.69 134.17-6.69 134.17 0 118.84 0 118.84-6.69 122.67-6.69 122.67-30.3 118.84-30.3ZM134.12-30.3L130.78-30.3 130.78-20.36 134.12-20.36Q136.91-20.36 138.54-21.53 140.18-22.71 140.18-25.24L140.18-25.24Q140.18-27.61 138.64-28.96 137.1-30.3 134.12-30.3L134.12-30.3ZM153.02-30.3L153.02-37.01 170.11-37.01Q172.96-37.01 175.36-36.12 177.75-35.23 179.48-33.72 181.22-32.2 182.19-30.22 183.17-28.25 183.17-26.1L183.17-26.1Q183.17-23.51 182.4-21.25 181.63-18.99 180.02-17.33 178.41-15.67 175.94-14.71 173.48-13.75 170.11-13.75L170.11-13.75 164.96-13.75 164.96-6.69 168.35-6.69 168.35 0 153.02 0 153.02-6.69 156.85-6.69 156.85-30.3 153.02-30.3ZM168.3-30.3L164.96-30.3 164.96-20.36 168.3-20.36Q171.08-20.36 172.72-21.53 174.36-22.71 174.36-25.24L174.36-25.24Q174.36-27.61 172.82-28.96 171.28-30.3 168.3-30.3L168.3-30.3ZM187.19-30.32L187.19-37.01 203.04-37.01 203.04-30.32 199.13-30.32 199.13-6.69 203.04-6.69 203.04 0 187.19 0 187.19-6.69 191.03-6.69 191.03-30.32 187.19-30.32ZM230.36-30.3L230.36-37.01 244.42-37.01 244.42-30.3 241.42-30.3 241.42 0 233.31 0 217.9-23.93 217.9-6.69 221.01-6.69 221.01 0 206.97 0 206.97-6.69 210.02-6.69 210.02-30.3 207.02-30.3 207.02-37.01 218.2-37.01 233.51-12.77 233.51-30.3 230.36-30.3ZM282.55 0L275.25 0 275.25-6.35Q273.74-3.69 272.3-2.44 270.86-1.2 269.04-0.44 267.22 0.32 264.17 0.29L264.17 0.29Q262.65 0.27 261.14-0.06 259.63-0.39 258.21-0.99 256.79-1.59 255.44-2.43 254.08-3.27 252.99-4.37L252.99-4.37Q250.28-7.1 248.77-10.71 247.27-14.31 247.27-18.55L247.27-18.55Q247.27-21.17 247.91-23.61 248.54-26.05 249.69-28.17 250.84-30.3 252.46-32.04 254.08-33.79 256.07-35.03 258.06-36.28 260.36-36.96 262.65-37.65 265.17-37.65L265.17-37.65Q268.05-37.65 270.17-36.88 272.3-36.11 274.74-34.01L274.74-34.01 280.21-34.01 280.21-25.76 272.66-25.76Q271.54-27.49 270.55-28.27 269.56-29.05 268.4-29.57 267.24-30.08 265.17-30.08L265.17-30.08Q263.12-30.08 261.36-29.15 259.6-28.22 258.32-26.65 257.04-25.07 256.31-22.94 255.57-20.8 255.57-18.55L255.57-18.55Q255.57-16.33 256.23-14.33 256.89-12.33 258.23-10.73 259.58-9.13 261.36-8.28 263.14-7.42 265.17-7.42L265.17-7.42Q267.76-7.42 269.68-8.94 271.61-10.45 272.47-13.06L272.47-13.06 265.41-13.06 265.41-19.75 282.55-19.75 282.55 0ZM305.11 0.66L305.11 0.66Q302.59 0.66 300.3-0.02 298-0.71 296.01-1.95 294.02-3.2 292.4-4.94 290.78-6.69 289.63-8.83 288.48-10.96 287.85-13.4 287.21-15.84 287.21-18.51L287.21-18.51Q287.21-21.17 287.85-23.62 288.48-26.07 289.63-28.21 290.78-30.35 292.4-32.09 294.02-33.84 296.01-35.08 298-36.33 300.3-37.01 302.59-37.7 305.11-37.7L305.11-37.7Q307.62-37.7 309.93-37.01 312.24-36.33 314.23-35.08 316.22-33.84 317.84-32.09 319.46-30.35 320.62-28.21 321.78-26.07 322.42-23.62 323.05-21.17 323.05-18.51L323.05-18.51Q323.05-15.87 322.42-13.42 321.78-10.96 320.62-8.83 319.46-6.69 317.84-4.94 316.22-3.2 314.23-1.95 312.24-0.71 309.93-0.02 307.62 0.66 305.11 0.66ZM305.11-7.01L305.11-7.01Q307.23-7.01 309-7.92 310.77-8.84 312.04-10.41 313.31-11.99 314.01-14.07 314.7-16.16 314.7-18.51L314.7-18.51Q314.7-20.87 313.99-22.97 313.29-25.07 312-26.65 310.72-28.22 308.96-29.14 307.21-30.05 305.11-30.05L305.11-30.05Q303.01-30.05 301.25-29.14 299.49-28.22 298.22-26.65 296.95-25.07 296.23-22.97 295.51-20.87 295.51-18.51L295.51-18.51Q295.51-16.16 296.23-14.07 296.95-11.99 298.22-10.41 299.49-8.84 301.25-7.92 303.01-7.01 305.11-7.01Z" opacity="1" transform="matrix(1,0,0,1,0,0)" fill="#ffffff" class="wordmark-text-0" data-fill-palette-color="primary" id="text-0"></path></svg></g></svg></g></svg></g></svg></g><g transform="matrix(1,0,0,1,168.7884603470636,0)"><svg viewBox="0 0 57.9430793058728 65.96429312310492" height="65.96429312310492" width="57.9430793058728"><g><svg xmlns="http://www.w3.org/2000/svg" xmlns:xlink="http://www.w3.org/1999/xlink" version="1.1" x="8" y="0" viewBox="0 0.6441024164798659 63.175 99.35594350767317" enable-background="new 0 0 63.176 100" xml:space="preserve" width="41.9430793058728" height="65.96429312310492" class="icon-icon-0" data-fill-palette-color="accent" id="icon-0"><g fill="#ffffff" data-fill-palette-color="accent"><circle cx="35.097" cy="8.635" r="8.6" fill="#ffffff" data-fill-palette-color="accent"></circle><g fill="#ffffff" data-fill-palette-color="accent"><path d="M55.788 83.153l7.387-0.802-3.833-14.719-4.368 0.479c-0.891-4.368-3.577-7.554-6.496-7.644l-2.63-8.936v2.674c0 2.329-0.735 4.535-2.084 6.373-1.549 0.412-3.02 1.66-4.123 3.454l0.056 2.373c0.769-1.972 1.939-3.51 3.242-4.29l0.011 0.067c0.178 0.579 0.535 1.059 0.992 1.393-0.579 1.081-0.981 2.384-1.17 3.822l1.092 0.167c0.156-1.348 0.546-2.552 1.07-3.521 0.501 0.123 1.036 0.123 1.571-0.033 0.501-0.145 0.925-0.412 1.259-0.747 1.036 1.46 1.604 3.71 1.482 6.228l-9.504-1.415 0.078 3.22c0 0 0.011 0.423 0.011 0.791l6.173 12.134 8.669 1.293 0.011-15.209-4.334-0.646c0.167-2.975-0.591-5.66-1.95-7.354 0.1-0.234 0.167-0.479 0.189-0.735 2.719 0.089 4.591 3.387 5.27 6.663l-2.384 0.256c0 0.067 0.011 0.145 0.011 0.212l3.365 0.501 0.947 0.145v0.958L55.788 83.153z" fill="#ffffff" data-fill-palette-color="accent"></path><path d="M15.76 64.877c-0.109 0.177-0.217 0.355-0.32 0.541l0.983 0.497c0.914-1.672 2.111-2.92 3.37-3.514C18.526 62.494 17.041 63.422 15.76 64.877z" fill="#ffffff" data-fill-palette-color="accent"></path><path d="M25.512 63.644c0.4 1.52 0.414 3.305 0.012 5.189-0.012 0.481-0.05 0.974-0.117 1.476l-0.255-0.06c-0.007 0.023-0.013 0.046-0.02 0.069l3.039 1.536 0.858 0.434L28.725 73.2l-4.114 12.373 4.885 1.148 1.271-15.153-4.273-1.004C26.864 67.906 26.475 65.427 25.512 63.644z" fill="#ffffff" data-fill-palette-color="accent"></path><polygon points="4.548,80.86 10.448,82.246 5.076,79.53   " fill="#ffffff" data-fill-palette-color="accent"></polygon><path d="M24.356 86.658l-0.098-0.023-0.331 0.995-0.407 1.225-0.174-0.088-0.253 7.561c-0.065 1.962 1.473 3.606 3.434 3.67 1.96 0.066 3.604-1.473 3.669-3.433l0.283-8.469-1.238-0.291L24.356 86.658z" fill="#ffffff" data-fill-palette-color="accent"></path><path d="M30.774 84.769h5.805l-2.228-15.042h-4.39c-0.334-3.61-1.939-6.585-4.089-7.777l1.17-3.989c0.49 1.125 1.214 2.173 2.273 2.864l-0.836 1.928c1.215 1.493 2.095 3.532 2.462 5.861h4.368l0.045 0.301 4.301-7.432c0.512-0.312 1.003-0.713 1.426-1.137 1.571-1.582 2.54-3.744 2.54-6.139V27.354c0-1.203-0.245-2.351-0.691-3.387l-0.011 0.045c-1.337-3.153-4.401-5.37-7.978-5.37-4.802 0-8.691 3.978-8.691 8.88 0 0 0.022 5.994 0.045 12.468l-5.928 20.189c-2.574-0.167-5.616 1.816-7.677 5.103L8.78 63.298 0 75.71l22.875 11.565 4.791-14.429-3.911-1.983c0.992-2.529 1.192-5.058 0.646-7.031 0.401-0.201 0.758-0.49 1.014-0.858 1.916 0.635 3.231 4.735 3.432 6.752h-1.036l3.209 0.758 0.936 0.223-0.078 0.958L30.774 84.769zM22.755 70.365l-9.067-4.584c1.807-2.848 4.354-4.599 6.471-4.508-0.007 0.683 0.243 1.343 0.698 1.858l-0.589 0.278c-0.209 0.099-0.415 0.237-0.62 0.381-0.612 0.836-1.104 1.867-1.47 3.013l0.982 0.497c0.474-1.601 1.244-2.892 2.178-3.741 0.27 0.196 0.574 0.357 0.915 0.457 0.366 0.108 0.735 0.138 1.091 0.109C23.821 65.823 23.646 68.074 22.755 70.365z" fill="#ffffff" data-fill-palette-color="accent"></path><polygon points="10.955,84.771 16.323,84.771 11.136,83.552   " fill="#ffffff" data-fill-palette-color="accent"></polygon><path d="M37.621 72.648c0-0.015-0.031-1.292-0.031-1.292l-1.487 2.576 1.582 10.676 0.025 0.17-0.013 0.335 0.062-0.007 0.115 0.779h-1.291-0.195l5.185 10.197c0.89 1.749 3.03 2.446 4.779 1.556 1.749-0.887 2.446-3.029 1.556-4.778L37.621 72.648z" fill="#ffffff" data-fill-palette-color="accent"></path></g></g></svg></g></svg></g><g><rect width="168.7884603470636" height="4.304434174379236" y="60.659858948725685" x="226.7315396529364" fill="#ffffff" data-fill-palette-color="accent"></rect><rect width="168.7884603470636" height="4.304434174379236" y="60.659858948725685" x="0" fill="#ffffff" data-fill-palette-color="accent"></rect><rect width="168.7884603470636" height="4.304434174379236" y="52.050990599967214" x="226.7315396529364" fill="#ffffff" data-fill-palette-color="accent"></rect><rect width="168.7884603470636" height="4.304434174379236" y="52.050990599967214" x="0" fill="#ffffff" data-fill-palette-color="accent"></rect></g></svg></g><defs></defs></svg><rect width="395.52" height="124.96348240417223" fill="none" stroke="none" visibility="hidden"></rect></g></svg></g></svg>