<svg width="134" height="133" viewBox="0 0 134 133" fill="none" xmlns="http://www.w3.org/2000/svg">
<path d="M0.432952 27.4999L55.4331 27.4999L105.433 77.9998L105.433 133L0.432952 27.4999Z" fill="url(#paint0_linear_73_536)"/>
<path d="M46.1804 63.3839C45.6525 62.8372 45.2291 62.2452 44.9102 61.6078C44.5817 60.9797 44.376 60.335 44.2933 59.6734C44.2198 59.0215 44.2828 58.3861 44.4822 57.7673C44.6812 57.1672 45.0445 56.6125 45.572 56.1031C45.8022 55.8808 46.0653 55.6638 46.3613 55.4521C46.6762 55.2407 47.024 55.0346 47.4047 54.8338C47.8042 54.6334 48.2366 54.4382 48.702 54.2483L49.2995 55.6731C48.9383 55.8366 48.6008 55.9957 48.2869 56.1505C47.9823 56.3149 47.706 56.4798 47.4579 56.6452C47.2191 56.8202 47.0038 57.0003 46.812 57.1856C46.3228 57.6579 46.0354 58.1857 45.9498 58.7688C45.8735 59.3616 45.9668 59.9572 46.2298 60.5559C46.4925 61.1734 46.8832 61.7507 47.4018 62.2878C48.0317 62.94 48.6411 63.408 49.2302 63.6917C49.8193 63.9755 50.378 64.1125 50.9062 64.1029C51.4249 64.1025 51.9078 63.9883 52.3549 63.7604C52.8018 63.5513 53.2026 63.2754 53.5575 62.9327C54.0275 62.4789 54.4424 61.9392 54.8022 61.3137C55.1808 60.6886 55.5744 60.0212 55.9828 59.3117L57.4247 60.1714C57.1621 60.6289 56.9388 60.9927 56.755 61.263C56.5899 61.5335 56.4494 61.7527 56.3333 61.9204C56.2361 62.0884 56.158 62.2379 56.0992 62.3689C55.9517 62.7152 55.8842 63.0677 55.8968 63.4262C55.9283 63.7851 56.0441 64.1737 56.2442 64.5921C56.4632 65.0108 56.7757 65.4783 57.1816 65.9946C57.597 66.5016 58.1151 67.0764 58.7356 67.719C59.2265 68.2274 59.6951 68.6646 60.1413 69.0307C60.5968 69.4064 61.0299 69.711 61.4408 69.9445C61.8612 70.1687 62.2498 70.3216 62.6067 70.4033C62.9825 70.4853 63.3218 70.4912 63.6248 70.4211C63.9374 70.3417 64.2135 70.1862 64.4533 69.9546C64.6643 69.7509 64.8196 69.499 64.9191 69.199C65.0283 68.8897 65.0482 68.5553 64.9791 68.1958C64.9099 67.8362 64.6994 67.4742 64.3474 67.1098C63.9028 66.6494 63.3383 66.3048 62.654 66.076C61.9789 65.8567 61.26 65.7169 60.4972 65.6564C59.7533 65.5963 59.0416 65.5886 58.3618 65.6333C57.6821 65.678 57.1106 65.7388 56.6472 65.8155L55.4817 64.5222C56.1065 64.3822 56.7873 64.2715 57.5242 64.1901C58.2612 64.1087 59.0067 64.0745 59.7608 64.0877C60.515 64.1009 61.2539 64.1751 61.9776 64.3103C62.7013 64.4455 63.3719 64.6505 63.9895 64.9253C64.6163 65.2097 65.1566 65.5869 65.6105 66.0569C66.1199 66.5844 66.4449 67.1417 66.5855 67.7288C66.745 68.3162 66.7398 68.8866 66.5698 69.4399C66.4091 70.0029 66.0986 70.5067 65.6382 70.9513C65.2162 71.3588 64.7254 71.6567 64.1657 71.8449C63.6157 72.0239 62.9977 72.0461 62.3117 71.9116C61.6257 71.777 60.8629 71.4478 60.0234 70.924C59.1935 70.3909 58.2876 69.616 57.3058 68.5993C56.6019 67.8704 56.0478 67.2006 55.6436 66.5901C55.239 65.9984 54.9466 65.4652 54.7663 64.9906C54.6048 64.5163 54.5271 64.1095 54.533 63.7701C54.5578 63.4311 54.6379 63.1591 54.7735 62.954L54.6094 64.2524C54.1027 64.649 53.5405 64.9881 52.9226 65.2696C52.3141 65.5607 51.6512 65.7189 50.9342 65.7441C50.2167 65.7882 49.4605 65.6288 48.6653 65.266C47.8701 64.9033 47.0418 64.2759 46.1804 63.3839ZM66.6894 64.2086C66.4949 64.0072 66.3953 63.7698 66.3907 63.4962C66.4049 63.223 66.5079 62.9938 66.6997 62.8085C66.8915 62.6233 67.1242 62.5283 67.3977 62.5237C67.6805 62.5286 67.9192 62.6318 68.1137 62.8332C68.2989 63.025 68.3845 63.2576 68.3703 63.5308C68.3653 63.8136 68.267 64.0476 68.0751 64.2328C67.8833 64.4181 67.646 64.5082 67.3632 64.5033C67.0992 64.4987 66.8747 64.4005 66.6894 64.2086ZM60.0273 77.7227L60.7178 76.2496C61.6241 76.7275 62.4482 77.053 63.1901 77.2263C63.9413 77.4091 64.6144 77.4727 65.2094 77.4171C65.8137 77.3711 66.3441 77.2389 66.8005 77.0206C67.2665 76.793 67.6626 76.5217 67.9887 76.2068C68.4586 75.7529 68.8315 75.189 69.1073 74.5148C69.402 73.8411 69.6447 73.1711 69.8355 72.5049L71.382 73.0411C71.2223 73.5475 71.0442 74.0253 70.8478 74.4745C70.6606 74.9333 70.4741 75.3544 70.2882 75.7377C70.1116 76.1307 69.9359 76.4765 69.7609 76.7752C69.4782 77.3077 69.362 77.7536 69.4123 78.1128C69.4814 78.4724 69.6966 78.8391 70.0578 79.2132C70.2523 79.4146 70.3337 79.6141 70.302 79.8115C70.2891 80.0093 70.2059 80.1823 70.0525 80.3305C69.899 80.4787 69.6903 80.5505 69.4264 80.5459C69.172 80.532 68.943 80.4196 68.7392 80.2086C68.3317 79.7866 68.0702 79.3718 67.9547 78.9643C67.8581 78.5572 67.8648 78.1707 67.9749 77.8048C68.0946 77.4298 68.2656 77.0886 68.4878 76.7813L68.6735 77.4917C68.0404 78.103 67.326 78.5149 66.5302 78.7273C65.7341 78.9586 64.9312 79.0388 64.1215 78.9681C63.3022 78.9067 62.5363 78.7566 61.8239 78.5178C61.1114 78.2791 60.5125 78.0141 60.0273 77.7227ZM68.7459 80.2155L70.0646 79.2202C70.6481 79.8244 71.1021 80.285 71.4266 80.6018C71.7604 80.9282 72.0061 81.1635 72.1639 81.3077C72.3313 81.4427 72.4428 81.5389 72.4983 81.5965C72.4275 81.3312 72.3817 80.9862 72.3608 80.5615C72.3495 80.1276 72.4188 79.6714 72.5686 79.1932C72.728 78.7056 73.0282 78.2488 73.4694 77.8227C74.0161 77.2948 74.6161 76.9564 75.2693 76.8075C75.9318 76.6682 76.5912 76.708 77.2475 76.9269C77.913 77.1554 78.5236 77.5574 79.0793 78.1328C79.2923 78.3534 79.5001 78.6069 79.7025 78.8933C79.905 79.1798 80.079 79.4751 80.2245 79.7794L78.8806 80.6046C78.7433 80.3665 78.5872 80.128 78.4122 79.8892C78.2372 79.6504 78.0663 79.4447 77.8996 79.2721C77.5662 78.9268 77.2026 78.6847 76.809 78.5458C76.425 78.3977 76.0438 78.358 75.6654 78.4268C75.287 78.4957 74.9348 78.6875 74.6087 79.0025C74.3593 79.2433 74.1801 79.5183 74.0709 79.8276C73.9714 80.1276 73.9235 80.4426 73.9271 80.7727C73.9308 81.1028 73.9818 81.4243 74.08 81.7372C74.1783 82.0501 74.2959 82.335 74.4329 82.592C74.5791 82.8586 74.7357 83.0688 74.9028 83.2226C75.0523 83.3006 75.1877 83.3737 75.3091 83.4418C75.4305 83.51 75.566 83.5831 75.7155 83.6611C75.8838 83.7395 76.0898 83.8279 76.3332 83.9265C76.5859 84.0346 76.9089 84.1676 77.3022 84.3253L76.641 85.7423C75.7614 85.3498 74.8968 84.9151 74.047 84.4382C73.2065 83.9709 72.349 83.3996 71.4744 82.7243C70.6187 82.0493 69.7092 81.213 68.7459 80.2155Z" fill="white"/>
<defs>
<linearGradient id="paint0_linear_73_536" x1="115" y1="118" x2="-1.70616e-06" y2="-2.48135e-06" gradientUnits="userSpaceOnUse">
<stop stop-color="#121212"/>
<stop offset="1" stop-color="#808080"/>
</linearGradient>
</defs>
</svg>
