<svg width="134" height="133" viewBox="0 0 134 133" fill="none" xmlns="http://www.w3.org/2000/svg">
<path d="M0.999846 27.4999L56 27.4999L106 77.9998L106 133L0.999846 27.4999Z" fill="url(#paint0_linear_73_520)"/>
<path d="M46.7473 63.3839C46.2194 62.8372 45.796 62.2452 45.4771 61.6078C45.1486 60.9797 44.9429 60.335 44.8602 59.6734C44.7867 59.0215 44.8497 58.3861 45.0491 57.7673C45.2481 57.1672 45.6114 56.6125 46.1389 56.1031C46.3691 55.8808 46.6322 55.6638 46.9282 55.4521C47.2431 55.2407 47.5909 55.0346 47.9715 54.8338C48.3711 54.6334 48.8035 54.4382 49.2689 54.2483L49.8664 55.6731C49.5052 55.8366 49.1677 55.9957 48.8538 56.1505C48.5492 56.3149 48.2728 56.4798 48.0248 56.6452C47.786 56.8202 47.5707 57.0003 47.3789 57.1856C46.8897 57.6579 46.6023 58.1857 46.5167 58.7688C46.4404 59.3616 46.5337 59.9572 46.7967 60.5559C47.0594 61.1734 47.4501 61.7507 47.9687 62.2878C48.5986 62.94 49.208 63.408 49.7971 63.6917C50.3862 63.9755 50.9449 64.1125 51.4731 64.1029C51.9918 64.1025 52.4747 63.9883 52.9218 63.7604C53.3687 63.5513 53.7695 63.2754 54.1244 62.9327C54.5944 62.4789 55.0092 61.9392 55.3691 61.3137C55.7477 60.6886 56.1413 60.0212 56.5497 59.3117L57.9915 60.1714C57.729 60.6289 57.5057 60.9927 57.3219 61.263C57.1568 61.5335 57.0163 61.7527 56.9002 61.9204C56.803 62.0884 56.7249 62.2379 56.6661 62.3689C56.5186 62.7152 56.4511 63.0677 56.4637 63.4262C56.4952 63.7851 56.611 64.1737 56.8111 64.5921C57.0301 65.0108 57.3426 65.4783 57.7485 65.9946C58.1639 66.5016 58.682 67.0764 59.3025 67.719C59.7934 68.2274 60.262 68.6646 60.7082 69.0307C61.1637 69.4064 61.5968 69.711 62.0077 69.9445C62.4281 70.1687 62.8167 70.3216 63.1736 70.4033C63.5494 70.4853 63.8887 70.4912 64.1917 70.4211C64.5043 70.3417 64.7804 70.1862 65.0202 69.9546C65.2312 69.7509 65.3865 69.499 65.486 69.199C65.5952 68.8897 65.6151 68.5553 65.546 68.1958C65.4768 67.8362 65.2663 67.4742 64.9143 67.1098C64.4697 66.6494 63.9052 66.3048 63.2209 66.076C62.5458 65.8567 61.8269 65.7169 61.0641 65.6564C60.3202 65.5963 59.6084 65.5886 58.9287 65.6333C58.249 65.678 57.6775 65.7388 57.2141 65.8155L56.0486 64.5222C56.6733 64.3822 57.3542 64.2715 58.0911 64.1901C58.8281 64.1087 59.5736 64.0745 60.3277 64.0877C61.0818 64.1009 61.8208 64.1751 62.5445 64.3103C63.2682 64.4455 63.9388 64.6505 64.5564 64.9253C65.1832 65.2097 65.7235 65.5869 66.1774 66.0569C66.6868 66.5844 67.0118 67.1417 67.1524 67.7288C67.3119 68.3162 67.3067 68.8866 67.1367 69.4399C66.976 70.0029 66.6655 70.5067 66.2051 70.9513C65.7831 71.3588 65.2923 71.6567 64.7326 71.8449C64.1826 72.0239 63.5646 72.0461 62.8786 71.9116C62.1926 71.777 61.4298 71.4478 60.5903 70.924C59.7604 70.3909 58.8545 69.616 57.8727 68.5993C57.1688 67.8704 56.6147 67.2006 56.2105 66.5901C55.8059 65.9984 55.5135 65.4652 55.3332 64.9906C55.1717 64.5163 55.0939 64.1095 55.0999 63.7701C55.1246 63.4311 55.2048 63.1591 55.3404 62.954L55.1763 64.2524C54.6696 64.649 54.1074 64.9881 53.4895 65.2696C52.881 65.5607 52.2181 65.7189 51.5011 65.7441C50.7836 65.7882 50.0273 65.6288 49.2322 65.266C48.437 64.9033 47.6087 64.2759 46.7473 63.3839ZM67.2563 64.2086C67.0618 64.0072 66.9622 63.7698 66.9576 63.4962C66.9718 63.223 67.0748 62.9938 67.2666 62.8085C67.4584 62.6233 67.6911 62.5283 67.9646 62.5237C68.2474 62.5286 68.4861 62.6318 68.6806 62.8332C68.8658 63.025 68.9514 63.2576 68.9372 63.5308C68.9322 63.8136 68.8338 64.0476 68.642 64.2328C68.4502 64.4181 68.2129 64.5082 67.9301 64.5033C67.6661 64.4987 67.4415 64.4005 67.2563 64.2086ZM60.5942 77.7227L61.2847 76.2496C62.191 76.7275 63.0151 77.053 63.757 77.2263C64.5082 77.4091 65.1813 77.4727 65.7763 77.4171C66.3806 77.3711 66.911 77.2389 67.3674 77.0206C67.8334 76.793 68.2295 76.5217 68.5556 76.2068C69.0255 75.7529 69.3984 75.189 69.6742 74.5148C69.9689 73.8411 70.2116 73.1711 70.4024 72.5049L71.9489 73.0411C71.7892 73.5475 71.6111 74.0253 71.4147 74.4745C71.2275 74.9333 71.041 75.3544 70.8551 75.7377C70.6785 76.1307 70.5028 76.4765 70.3278 76.7752C70.0451 77.3077 69.9288 77.7536 69.9792 78.1128C70.0483 78.4724 70.2635 78.8391 70.6247 79.2132C70.8192 79.4146 70.9006 79.6141 70.8689 79.8115C70.856 80.0093 70.7728 80.1823 70.6194 80.3305C70.4659 80.4787 70.2572 80.5505 69.9933 80.5459C69.7389 80.532 69.5098 80.4196 69.3061 80.2086C68.8985 79.7866 68.637 79.3718 68.5216 78.9643C68.425 78.5572 68.4317 78.1707 68.5418 77.8048C68.6615 77.4298 68.8325 77.0886 69.0547 76.7813L69.2403 77.4917C68.6073 78.103 67.8929 78.5149 67.0971 78.7273C66.301 78.9586 65.4981 79.0388 64.6884 78.9681C63.8691 78.9067 63.1032 78.7566 62.3907 78.5178C61.6783 78.2791 61.0794 78.0141 60.5942 77.7227ZM69.3128 80.2155L70.6315 79.2202C71.215 79.8244 71.669 80.285 71.9935 80.6018C72.3272 80.9282 72.573 81.1635 72.7308 81.3077C72.8982 81.4427 73.0097 81.5389 73.0652 81.5965C72.9944 81.3312 72.9486 80.9862 72.9277 80.5615C72.9164 80.1276 72.9857 79.6714 73.1355 79.1932C73.2949 78.7056 73.5951 78.2488 74.0363 77.8227C74.583 77.2948 75.183 76.9564 75.8362 76.8075C76.4987 76.6682 77.1581 76.708 77.8144 76.9269C78.4799 77.1554 79.0905 77.5574 79.6462 78.1328C79.8592 78.3534 80.067 78.6069 80.2694 78.8933C80.4719 79.1798 80.6459 79.4751 80.7914 79.7794L79.4475 80.6046C79.3102 80.3665 79.154 80.128 78.9791 79.8892C78.8041 79.6504 78.6332 79.4447 78.4665 79.2721C78.1331 78.9268 77.7695 78.6847 77.3759 78.5458C76.9919 78.3977 76.6107 78.358 76.2323 78.4268C75.8539 78.4957 75.5017 78.6875 75.1756 79.0025C74.9262 79.2433 74.747 79.5183 74.6378 79.8276C74.5383 80.1276 74.4904 80.4426 74.494 80.7727C74.4977 81.1028 74.5487 81.4243 74.6469 81.7372C74.7452 82.0501 74.8628 82.335 74.9998 82.592C75.146 82.8586 75.3026 83.0688 75.4697 83.2226C75.6192 83.3006 75.7546 83.3737 75.876 83.4418C75.9974 83.51 76.1329 83.5831 76.2824 83.6611C76.4507 83.7395 76.6566 83.8279 76.9001 83.9265C77.1528 84.0346 77.4758 84.1676 77.8691 84.3253L77.2079 85.7423C76.3283 85.3498 75.4637 84.9151 74.6139 84.4382C73.7734 83.9709 72.9159 83.3996 72.0413 82.7243C71.1856 82.0493 70.2761 81.213 69.3128 80.2155Z" fill="white"/>
<defs>
<linearGradient id="paint0_linear_73_520" x1="14.4854" y1="13.9671" x2="119.918" y2="119.033" gradientUnits="userSpaceOnUse">
<stop stop-color="#A62A30"/>
<stop offset="1" stop-color="#272047"/>
</linearGradient>
</defs>
</svg>
